#!OML:ASF I:\golf\golf\golf 2\Subject 1\2002-09-07\Subject1.ASF
:FULLY-SPECIFIED
:DEGREES
279
root -5.88616 17.9342 4.16622 3.41608 42.2619 -11.8975
lowerback 6.49951 -8.38448 -14.4395
upperback 0.72922 -12.077 -3.34766
thorax -0.626247 -5.91334 4.93038
lowerneck -5.57989 20.8131 2.06869
upperneck 9.75024 29.7956 -14.2857
head 6.38244 13.719 -2.06159
rclavicle -2.54444e-014 -5.08889e-014
rhumerus 26.2719 -23.7783 -55.7476
rradius 106.135
rwrist -4.46652
rhand -63.8931 59.6572
rfingers 7.12502
rthumb -35.8496 33.3039
lclavicle -2.54444e-014 -5.08889e-014
lhumerus 110.729 -42.2862 45.0027
lradius 36.8153
lwrist -8.83829
lhand -28.8816 -0.815913
lfingers 7.12502
lthumb -182.237 -150.848
rfemur -30.5959 16.9705 24.7154
rtibia 29.011
rfoot -2.91437 22.4016
rtoes 28.3489
lfemur -10.0318 23.4407 3.90513
ltibia 37.1865
lfoot 0.166349 13.2717
ltoes -33.8383
280
root -5.89269 17.9363 4.13806 3.45206 42.7375 -11.9482
lowerback 6.53878 -8.29502 -14.3681
upperback 0.80375 -11.9524 -3.35629
thorax -0.607149 -5.85633 4.88837
lowerneck -5.35025 20.6281 2.44438
upperneck 9.83716 29.5534 -14.4419
head 6.4312 13.6125 -2.18383
rclavicle 8.34896e-015 -6.04305e-014
rhumerus 26.0638 -23.803 -56.1867
rradius 105.765
rwrist -4.96789
rhand -63.9028 58.6757
rfingers 7.12502
rthumb -35.8588 32.3246
lclavicle 8.34896e-015 -6.04305e-014
lhumerus 110.654 -42.7845 45.0805
lradius 36.5774
lwrist -8.62889
lhand -28.1224 -0.6068
lfingers 7.12502
lthumb -181.504 -150.632
rfemur -30.7671 16.6724 24.6163
rtibia 28.9784
rfoot -3.06302 22.2025
rtoes 27.6842
lfemur -10.4787 23.5325 3.66759
ltibia 37.1687
lfoot 0.0319108 13.3289
ltoes -33.9558
281
root -5.90165 17.9384 4.10667 3.40311 43.2944 -12.1436
lowerback 6.66844 -8.36814 -14.3164
upperback 0.939286 -12.0523 -3.1476
thorax -0.479754 -5.92401 5.07887
lowerneck -5.76558 20.5785 2.13283
upperneck 10.0401 29.5387 -14.3405
head 6.50289 13.5652 -2.07801
rclavicle 4.37326e-015 9.54166e-014
rhumerus 26.4683 -23.4671 -56.8618
rradius 105.416
rwrist -5.55449
rhand -63.9567 58.1993
rfingers 7.12502
rthumb -35.9099 31.8607
lclavicle 4.37326e-015 9.54166e-014
lhumerus 110.244 -42.753 45.3965
lradius 36.2971
lwrist -8.5286
lhand -27.4801 -0.51624
lfingers 7.12502
lthumb -180.884 -150.538
rfemur -30.9631 16.4311 24.5928
rtibia 28.9197
rfoot -3.19818 21.9003
rtoes 27.1253
lfemur -11.0253 23.614 3.51756
ltibia 37.2056
lfoot -0.42509 13.5233
ltoes -32.7582
282
root -5.91018 17.9402 4.07066 3.32677 43.8864 -12.3824
lowerback 6.86008 -8.49938 -14.2937
upperback 1.07042 -12.2423 -2.85885
thorax -0.349671 -6.03794 5.37357
lowerneck -6.33719 20.5886 1.64744
upperneck 10.2769 29.622 -14.1712
head 6.58387 13.5519 -1.90903
rclavicle 2.22241e-013 -1.90833e-014
rhumerus 26.9953 -22.9432 -57.5327
rradius 105.115
rwrist -6.21693
rhand -63.801 57.8341
rfingers 7.12502
rthumb -35.7624 31.4596
lclavicle 2.22241e-013 -1.90833e-014
lhumerus 109.743 -42.4372 45.6569
lradius 35.9839
lwrist -8.44785
lhand -27.1322 -0.549831
lfingers 7.12502
lthumb -180.548 -150.571
rfemur -31.1576 16.1977 24.5698
rtibia 28.8308
rfoot -3.38715 21.5008
rtoes 26.3221
lfemur -11.6005 23.7695 3.37624
ltibia 37.2664
lfoot -0.896867 13.6138
ltoes -32.0734
283
root -5.91741 17.9419 4.03255 3.26335 44.5038 -12.6495
lowerback 7.01285 -8.58956 -14.1613
upperback 1.1702 -12.3686 -2.59437
thorax -0.270569 -6.11618 5.58843
lowerneck -6.7951 20.5655 1.15939
upperneck 10.4799 29.6515 -13.9835
head 6.62761 13.5238 -1.75703
rclavicle 1.62606e-013 1.59028e-014
rhumerus 27.2855 -22.4878 -57.9693
rradius 104.81
rwrist -6.85052
rhand -63.3129 57.8764
rfingers 7.12502
rthumb -35.2997 31.3908
lclavicle 1.62606e-013 1.59028e-014
lhumerus 109.343 -42.26 45.8245
lradius 35.6634
lwrist -8.42313
lhand -26.909 -0.28709
lfingers 7.12502
lthumb -180.332 -150.308
rfemur -31.3777 15.9465 24.5507
rtibia 28.7517
rfoot -3.76626 21.0361
rtoes 24.6879
lfemur -12.2256 23.99 3.22416
ltibia 37.3198
lfoot -1.56201 13.6949
ltoes -30.7301
284
root -5.92257 17.9447 3.99269 3.29936 45.1721 -12.8091
lowerback 7.14274 -8.64672 -13.9864
upperback 1.21555 -12.4502 -2.43572
thorax -0.278392 -6.16187 5.67917
lowerneck -6.8095 20.5617 0.855009
upperneck 10.4445 29.6314 -13.8049
head 6.54508 13.5226 -1.69084
rclavicle -1.01778e-013 -2.8625e-014
rhumerus 27.2716 -22.141 -58.4013
rradius 104.458
rwrist -7.38186
rhand -62.5299 59.8768
rfingers 7.12502
rthumb -34.5568 33.2184
lclavicle -1.01778e-013 -2.8625e-014
lhumerus 108.816 -42.4208 46.0939
lradius 35.4579
lwrist -8.30798
lhand -26.4285 -0.160316
lfingers 7.12502
lthumb -179.868 -150.181
rfemur -31.6396 15.7001 24.402
rtibia 28.6797
rfoot -4.06276 20.5235
rtoes 23.2996
lfemur -12.897 24.1846 2.92682
ltibia 37.3372
lfoot -2.02088 13.6969
ltoes -30.0513
285
root -5.92603 17.9446 3.95219 3.37868 45.8583 -12.922
lowerback 7.23851 -8.70257 -13.8601
upperback 1.26628 -12.5262 -2.26303
thorax -0.249123 -6.20769 5.80122
lowerneck -6.73208 20.6277 0.546412
upperneck 10.357 29.6914 -13.6164
head 6.43469 13.5698 -1.62519
rclavicle 3.37934e-014 2.8625e-014
rhumerus 27.2421 -21.8181 -58.8763
rradius 104.079
rwrist -7.93627
rhand -62.7868 57.9308
rfingers 7.12502
rthumb -34.8007 31.3284
lclavicle 3.37934e-014 2.8625e-014
lhumerus 108.169 -42.6461 46.5492
lradius 35.1111
lwrist -8.61555
lhand -26.4297 -0.564951
lfingers 7.12502
lthumb -179.869 -150.585
rfemur -31.9089 15.461 24.1809
rtibia 28.5763
rfoot -4.20487 20.0375
rtoes 22.3521
lfemur -13.5622 24.538 2.56201
ltibia 37.3202
lfoot -2.04121 13.4907
ltoes -31.1093
286
root -5.92924 17.9452 3.91041 3.34076 46.5464 -13.2101
lowerback 7.28745 -8.66865 -13.6231
upperback 1.3455 -12.4658 -2.10338
thorax -0.216654 -6.18754 5.84748
lowerneck -6.66453 20.5695 0.693235
upperneck 10.47 29.6264 -13.66
head 6.4832 13.5373 -1.657
rclavicle -3.85642e-014 -4.45278e-014
rhumerus 27.0572 -21.7602 -59.3289
rradius 103.753
rwrist -8.47394
rhand -62.796 56.7582
rfingers 7.12502
rthumb -34.8093 30.1578
lclavicle -3.85642e-014 -4.45278e-014
lhumerus 107.927 -42.9905 46.6366
lradius 34.6427
lwrist -8.99532
lhand -26.6996 -0.507917
lfingers 7.12502
lthumb -180.13 -150.528
rfemur -32.1593 15.0113 24.158
rtibia 28.4643
rfoot -4.33453 19.782
rtoes 21.4655
lfemur -14.2489 24.9308 2.36146
ltibia 37.2709
lfoot -2.34429 13.2308
ltoes -30.6987
287
root -5.93263 17.9556 3.86496 3.3379 47.29 -13.41
lowerback 7.35852 -8.53507 -13.3862
upperback 1.43238 -12.2754 -2.09238
thorax -0.246974 -6.09533 5.74934
lowerneck -6.43178 20.3123 1.45594
upperneck 10.6769 29.2892 -13.914
head 6.6339 13.3819 -1.84023
rclavicle 9.06458e-014 2.8625e-014
rhumerus 26.542 -21.9883 -59.8043
rradius 103.517
rwrist -9.08884
rhand -63.0881 55.6401
rfingers 7.12502
rthumb -35.0865 29.1042
lclavicle 9.06458e-014 2.8625e-014
lhumerus 108.061 -43.5452 46.2071
lradius 34.4548
lwrist -8.6472
lhand -26.0969 0.107569
lfingers 7.12502
lthumb -179.548 -149.913
rfemur -32.3872 14.4215 24.0888
rtibia 28.3959
rfoot -4.46229 19.5753
rtoes 20.8137
lfemur -14.9594 25.2022 2.08037
ltibia 37.1797
lfoot -2.79863 12.9857
ltoes -29.3242
288
root -5.9391 17.9662 3.81688 3.40621 48.1339 -13.41
lowerback 7.58541 -8.51346 -13.3629
upperback 1.55049 -12.2678 -1.97034
thorax -0.224462 -6.10016 5.88875
lowerneck -6.51451 20.1847 1.49841
upperneck 10.736 29.1293 -13.9431
head 6.66467 13.2991 -1.85942
rclavicle 3.57812e-014 -3.81667e-014
rhumerus 26.4 -21.8464 -60.3354
rradius 103.252
rwrist -9.83146
rhand -63.2553 54.298
rfingers 7.12502
rthumb -35.2451 27.7995
lclavicle 3.57812e-014 -3.81667e-014
lhumerus 107.749 -43.7788 46.2028
lradius 34.3483
lwrist -8.35371
lhand -25.1242 0.470957
lfingers 7.12502
lthumb -178.608 -149.554
rfemur -32.5532 13.8554 23.8519
rtibia 28.3366
rfoot -4.7189 19.1851
rtoes 19.2391
lfemur -15.6254 25.4199 1.62453
ltibia 37.0821
lfoot -3.05933 12.6363
ltoes -29.0049
289
root -5.94918 17.9646 3.771 3.38688 49.0197 -13.5178
lowerback 7.82943 -8.498 -13.301
upperback 1.63706 -12.2716 -1.83169
thorax -0.247172 -6.1068 6.03256
lowerneck -6.5638 20.094 1.56197
upperneck 10.862 29.0192 -13.9062
head 6.70769 13.2417 -1.85781
rclavicle -9.93923e-014 5.725e-014
rhumerus 26.1535 -21.6556 -60.8995
rradius 103.012
rwrist -10.6531
rhand -62.9577 52.974
rfingers 7.12502
rthumb -34.9628 26.4092
lclavicle -9.93923e-014 5.725e-014
lhumerus 107.301 -44.1112 46.345
lradius 34.0471
lwrist -8.25409
lhand -24.5506 0.616432
lfingers 7.12502
lthumb -178.054 -149.413
rfemur -32.729 13.3852 23.6806
rtibia 28.2708
rfoot -4.86254 18.6136
rtoes 17.8093
lfemur -16.2624 25.5222 1.28507
ltibia 36.9786
lfoot -3.51836 12.264
ltoes -27.8143
290
root -5.95802 17.9618 3.72512 3.26887 49.9034 -13.8924
lowerback 7.83027 -8.3318 -12.9361
upperback 1.6755 -12.0218 -1.87835
thorax -0.340911 -5.9774 5.80398
lowerneck -6.06857 19.7942 2.77881
upperneck 11.2367 28.6089 -14.1272
head 6.91613 13.0734 -2.11017
rclavicle 1.08139e-013 -1.27222e-014
rhumerus 25.1938 -21.906 -61.4224
rradius 102.788
rwrist -11.2465
rhand -62.8644 51.2266
rfingers 7.12502
rthumb -34.8743 24.6413
lclavicle 1.08139e-013 -1.27222e-014
lhumerus 107.455 -44.9369 45.7937
lradius 33.7094
lwrist -7.96127
lhand -24.2286 0.799071
lfingers 7.12502
lthumb -177.743 -149.233
rfemur -33.0381 12.9238 23.6629
rtibia 28.245
rfoot -4.80972 18.058
rtoes 17.7735
lfemur -17.0214 25.714 1.08026
ltibia 36.8435
lfoot -4.00799 11.8859
ltoes -25.9518
291
root -5.96285 17.9686 3.6775 3.17335 50.8176 -14.289
lowerback 7.72441 -8.24136 -12.5388
upperback 1.77393 -11.8483 -1.83163
thorax -0.280969 -5.90028 5.62554
lowerneck -5.83641 19.5366 3.57687
upperneck 11.5304 28.2681 -14.2637
head 7.07367 12.9242 -2.27603
rclavicle 1.00187e-013 6.36111e-015
rhumerus 24.5494 -21.9496 -61.9548
rradius 102.409
rwrist -11.3686
rhand -63.3358 49.5585
rfingers 7.12502
rthumb -35.3214 23.0781
lclavicle 1.00187e-013 6.36111e-015
lhumerus 107.517 -45.4752 45.2991
lradius 33.5268
lwrist -7.67448
lhand -23.4112 1.2042
lfingers 7.12502
lthumb -176.954 -148.838
rfemur -33.3839 12.3212 23.6555
rtibia 28.2511
rfoot -4.93637 17.6887
rtoes 17.1803
lfemur -17.8724 26.0837 0.775804
ltibia 36.6865
lfoot -4.15141 11.4244
ltoes -25.7816
292
root -5.96638 17.9746 3.6276 3.12235 51.8222 -14.5601
lowerback 7.78699 -8.30017 -12.305
upperback 1.91467 -11.9047 -1.57847
thorax -0.14749 -5.94746 5.75937
lowerneck -6.18288 19.3979 3.28166
upperneck 11.6548 28.1013 -14.1187
head 7.09366 12.8203 -2.19185
rclavicle 7.95139e-015 -5.725e-014
rhumerus 24.5947 -21.645 -62.5868
rradius 101.969
rwrist -11.6756
rhand -63.4499 49.0823
rfingers 7.12502
rthumb -35.4296 22.6276
lclavicle 7.95139e-015 -5.725e-014
lhumerus 106.956 -45.6353 45.5169
lradius 33.3051
lwrist -7.77823
lhand -22.4819 1.49124
lfingers 7.12502
lthumb -176.057 -148.566
rfemur -33.6572 11.6915 23.5343
rtibia 28.228
rfoot -5.15985 17.2687
rtoes 15.6012
lfemur -18.715 26.0632 0.348339
ltibia 36.5495
lfoot -4.29232 11.1672
ltoes -26.1966
293
root -5.97268 17.9737 3.57303 3.00855 52.9157 -14.8509
lowerback 7.95894 -8.30237 -12.0989
upperback 2.07312 -11.9019 -1.29685
thorax -0.0544141 -5.96373 5.95374
lowerneck -6.57737 19.1996 3.04695
upperneck 11.7242 27.8629 -14.0969
head 7.12597 12.6778 -2.1527
rclavicle -6.83819e-014 -9.54166e-015
rhumerus 24.5805 -21.5306 -63.2681
rradius 101.636
rwrist -12.2331
rhand -63.0449 48.6637
rfingers 7.12502
rthumb -35.0455 22.1183
lclavicle -6.83819e-014 -9.54166e-015
lhumerus 106.482 -45.9499 45.7962
lradius 32.9107
lwrist -8.18996
lhand -22.1645 1.65901
lfingers 7.12502
lthumb -175.75 -148.404
rfemur -33.9104 11.0903 23.3852
rtibia 28.1992
rfoot -5.29313 16.6585
rtoes 14.4607
lfemur -19.5231 25.6453 -0.0686834
ltibia 36.4204
lfoot -4.69146 11.1546
ltoes -25.4703
